<svg width="25" height="25" viewBox="0 0 25 25" fill="none" xmlns="http://www.w3.org/2000/svg">
<path d="M12.5 0C10.0277 0 7.61099 0.733112 5.55538 2.10663C3.49976 3.48015 1.89761 5.43238 0.951511 7.71645C0.00541604 10.0005 -0.242126 12.5139 0.24019 14.9386C0.722505 17.3634 1.91301 19.5907 3.66117 21.3388C5.40933 23.087 7.63661 24.2775 10.0614 24.7598C12.4861 25.2421 14.9995 24.9946 17.2835 24.0485C19.5676 23.1024 21.5199 21.5002 22.8934 19.4446C24.2669 17.389 25 14.9723 25 12.5C24.9965 9.18587 23.6784 6.00848 21.335 3.66503C18.9915 1.32158 15.8141 0.00349978 12.5 0ZM17.3077 14.4231C17.3077 14.6781 17.2064 14.9227 17.0261 15.103C16.8457 15.2833 16.6012 15.3846 16.3462 15.3846C16.0911 15.3846 15.8466 15.2833 15.6662 15.103C15.4859 14.9227 15.3846 14.6781 15.3846 14.4231V10.9748L9.33414 17.0264C9.2448 17.1158 9.13874 17.1866 9.02202 17.235C8.9053 17.2833 8.78019 17.3082 8.65385 17.3082C8.52751 17.3082 8.4024 17.2833 8.28568 17.235C8.16896 17.1866 8.0629 17.1158 7.97356 17.0264C7.88422 16.9371 7.81336 16.831 7.76501 16.7143C7.71666 16.5976 7.69178 16.4725 7.69178 16.3461C7.69178 16.2198 7.71666 16.0947 7.76501 15.978C7.81336 15.8613 7.88422 15.7552 7.97356 15.6659L14.0252 9.61538H10.5769C10.3219 9.61538 10.0773 9.51408 9.89702 9.33375C9.71669 9.15343 9.61539 8.90886 9.61539 8.65384C9.61539 8.39883 9.71669 8.15426 9.89702 7.97393C10.0773 7.79361 10.3219 7.69231 10.5769 7.69231H16.3462C16.6012 7.69231 16.8457 7.79361 17.0261 7.97393C17.2064 8.15426 17.3077 8.39883 17.3077 8.65384V14.4231Z" fill="#140622"/>
</svg>
