<?xml version="1.0" encoding="UTF-8"?>
<svg id="Capa_1" data-name="Capa 1" xmlns="http://www.w3.org/2000/svg" viewBox="0 0 447.65 146.94">
  <defs>
    <style>
      .cls-1 {
        fill: #ff6b81;
      }

      .cls-2 {
        fill: #7b61ff;
      }
    </style>
  </defs>
  <path class="cls-2" d="M8.65,113.5V10.8h23.07v102.7H8.65ZM28.9,113.5v-20.26h43.05v20.26H28.9Z"/>
  <path class="cls-2" d="M239.78,141.63V36.4h17.87v33.34l-2.39-.14c.37-7.69,1.97-14.19,4.78-19.48,2.81-5.3,6.61-9.29,11.4-11.96,4.78-2.67,10.18-4.01,16.18-4.01,5.35,0,10.2.98,14.56,2.95,4.36,1.97,8.11,4.71,11.25,8.23,3.14,3.52,5.53,7.65,7.17,12.38,1.64,4.74,2.46,9.92,2.46,15.55v3.24c0,5.53-.8,10.72-2.39,15.55-1.6,4.83-3.92,9.03-6.96,12.59-3.05,3.57-6.75,6.36-11.11,8.37-4.36,2.02-9.36,3.02-14.98,3.02s-11.04-1.2-15.69-3.59c-4.64-2.39-8.37-6.05-11.18-10.97-2.81-4.92-4.36-11.18-4.64-18.78l6.19,8.44v50.51h-22.51ZM281.29,97.18c3.84,0,7.2-.94,10.06-2.81,2.86-1.88,5.09-4.5,6.68-7.88,1.59-3.38,2.39-7.27,2.39-11.68s-.8-8.25-2.39-11.54c-1.6-3.28-3.8-5.84-6.61-7.67-2.81-1.83-6.19-2.74-10.13-2.74-3.38,0-6.57.8-9.57,2.39-3,1.6-5.42,3.87-7.25,6.82-1.83,2.95-2.74,6.54-2.74,10.76v5.21c0,4.03.96,7.48,2.88,10.34,1.92,2.86,4.38,5.04,7.39,6.54,3,1.5,6.1,2.25,9.29,2.25Z"/>
  <rect class="cls-2" x="326.01" y="36.4" width="32.78" height="16.6"/>
  <path class="cls-2" d="M345,28.8c-4.22,0-7.34-1.1-9.36-3.31-2.02-2.2-3.02-4.99-3.02-8.37s1.01-6.31,3.02-8.51c2.02-2.2,5.13-3.31,9.36-3.31s7.34,1.1,9.36,3.31c2.02,2.2,3.02,5.04,3.02,8.51s-1.01,6.17-3.02,8.37c-2.02,2.2-5.13,3.31-9.36,3.31Z"/>
  <rect class="cls-2" x="336.28" y="36.4" width="22.51" height="77.1"/>
  <path class="cls-2" d="M366.41,113.5V36.4h17.87v33.06h-1.27c0-7.88,1.01-14.44,3.02-19.7,2.02-5.25,5.09-9.19,9.21-11.82,4.13-2.62,9.14-3.94,15.05-3.94h.98c9,0,15.87,2.93,20.61,8.79,4.74,5.86,7.1,14.75,7.1,26.66v44.03h-22.51v-45.3c0-4.13-1.22-7.5-3.66-10.13-2.44-2.62-5.72-3.94-9.85-3.94s-7.62,1.34-10.2,4.01c-2.58,2.67-3.87,6.17-3.87,10.48v44.88h-22.51Z"/>
  <path class="cls-1" d="M164.22,43.43c28.65-26.99,71.42-4.97,68.03,33.82-1.67,19.13-17,34.92-36.37,35.95-17.14.91-30.97-7.82-39.69-22.06l10.22-15.2c7.44,14.44,22.1,26.92,38.39,16.14,20.56-13.61,5.6-50.49-19.75-41.44-19.38,6.92-27.94,48.19-53.6,59.33-28.03,12.17-57.04-8.55-56.02-38.78,1.43-42.73,55.81-53.55,76.12-17.68l-9.62,16.3c-7.69-13.43-22.45-27.63-38.29-16.03-24.96,18.29,3.63,61.84,30.24,32.46,11.8-13.02,17.37-30.57,30.35-42.8Z"/>
</svg>