<svg width="190" height="105" viewBox="0 0 190 105" fill="none" xmlns="http://www.w3.org/2000/svg">
<g clip-path="url(#clip0_180_123)">
<path d="M29.5434 76.0933C26.9992 76.602 24.4644 77.1337 21.9342 77.6933C20.7203 72.2967 19.5064 66.9047 18.2971 61.5081C19.1901 61.3093 20.0831 61.1151 20.9761 60.9255C21.9668 65.4943 22.9528 70.0585 23.9435 74.6274C25.6411 74.2667 27.3388 73.9152 29.041 73.5776C29.2085 74.4146 29.3759 75.2563 29.5434 76.0933Z" fill="#F4E5D4"/>
<path d="M31.9945 58.7521C32.441 61.2862 32.8037 63.8342 33.3712 66.3498C33.6177 67.455 34.5525 72.5326 36.0827 72.2644C37.6083 71.9961 36.7339 66.9001 36.585 65.7857C36.2502 63.2284 35.7106 60.7128 35.2548 58.1786C36.1525 58.026 37.0548 57.8734 37.9525 57.7255C38.4873 60.8978 39.1989 64.0377 39.371 67.2608C39.492 69.5499 39.6315 74.2574 36.5339 74.7892C33.4316 75.321 31.948 70.9002 31.2689 68.6897C30.3154 65.6007 29.9015 62.4145 29.3062 59.2515C30.2038 59.085 31.1015 58.9185 31.9991 58.7521H31.9945Z" fill="#F4E5D4"/>
<path d="M48.208 56.2087C49.1382 56.0838 50.0963 56.2041 50.9707 56.537C51.0776 57.3879 51.1846 58.2341 51.2916 59.085C50.3428 58.7983 49.5056 58.655 48.5475 58.7521C45.8359 59.0295 45.0034 62.7614 45.3801 64.9718C45.7429 67.1313 47.2824 70.4562 50.0777 70.1002C50.9846 69.9846 51.8172 69.61 52.5613 69.0921C52.6683 69.9429 52.7753 70.7892 52.8823 71.6401C52.1567 72.1719 51.3102 72.5233 50.4172 72.6435C46.2871 73.1938 43.2918 68.9487 42.7383 65.3649C42.1616 61.6423 43.9569 56.7729 48.208 56.2087Z" fill="#F4E5D4"/>
<path d="M60.1564 54.826C64.4168 54.3728 67.2818 58.7521 67.5842 62.4931C67.8725 66.0863 65.9423 70.9557 61.8029 71.3302C57.6867 71.7002 54.817 67.3903 54.3891 63.7926C53.9426 60.0561 55.9333 55.2792 60.1611 54.8306L60.1564 54.826ZM60.4076 57.3786C57.6077 57.6561 56.7333 61.2677 57.0309 63.4874C57.3193 65.6562 58.7425 69.0458 61.5425 68.773C64.3424 68.4955 65.0679 64.8886 64.9238 62.7105C64.7796 60.4816 63.2075 57.1012 60.4076 57.3786Z" fill="#F4E5D4"/>
<path d="M84.4304 53.2815C85.3699 53.2537 86.3048 53.4711 87.1373 53.8919C87.1606 55.0017 87.1838 56.1116 87.2071 57.2214C86.5699 56.3936 85.5373 55.8295 84.5001 55.8434C81.7281 55.885 80.5654 59.4734 80.7095 61.7024C80.8444 63.8804 82.0025 67.3302 84.8071 67.2886C84.7513 65.3741 84.6955 63.455 84.6397 61.5405C85.528 61.5174 86.4164 61.4943 87.3001 61.4758C87.3559 64.0192 87.4071 66.5672 87.4629 69.1106C86.6908 69.5637 85.8117 69.8273 84.9094 69.8551C80.7468 69.9753 78.2212 65.4388 78.0445 61.8226C77.8631 58.0677 80.1375 53.4017 84.4211 53.2815H84.4304Z" fill="#F4E5D4"/>
<path d="M97.4951 53.1474C101.774 53.1474 104.155 57.8133 104.048 61.559C103.946 65.1567 101.514 69.7996 97.3556 69.7302C93.2255 69.6608 90.8395 65.0689 90.8023 61.448C90.7604 57.6885 93.2441 53.1474 97.4951 53.1474ZM97.4719 55.7139C94.658 55.6908 93.4069 59.196 93.4627 61.4295C93.5185 63.6168 94.5603 67.1406 97.3742 67.1637C100.188 67.1868 101.29 63.6723 101.383 61.4943C101.476 59.2654 100.281 55.737 97.4719 55.7139Z" fill="#F4E5D4"/>
<path d="M110.579 53.4988C110.444 56.0699 110.225 58.6318 110.211 61.2076C110.206 62.3359 109.969 67.4967 111.518 67.5753C113.062 67.6539 113.355 62.4885 113.462 61.3694C113.709 58.8029 113.751 56.2318 113.876 53.6607C114.783 53.7115 115.695 53.767 116.602 53.8225C116.406 57.0364 116.392 60.2503 115.839 63.4319C115.444 65.6839 114.523 70.3083 111.393 70.1372C108.258 69.9661 107.811 65.3186 107.648 63.0203C107.416 59.7972 107.727 56.5971 107.862 53.3832C108.769 53.4202 109.681 53.4572 110.588 53.4988H110.579Z" fill="#F4E5D4"/>
<path d="M125.16 54.4653C129.764 54.8538 129.908 61.5128 127.267 64.1348C128.876 65.966 128.057 69.2215 127.829 71.3719C126.969 71.284 126.104 71.2054 125.239 71.1221C125.415 69.573 126.629 65.5267 124.127 65.2492C123.499 65.1938 123.188 65.166 122.56 65.1151C122.402 67.025 122.243 68.9348 122.081 70.8447C121.216 70.7753 120.355 70.706 119.49 70.6412C119.904 65.129 120.323 59.6168 120.736 54.1046C122.211 54.2156 123.681 54.3358 125.15 54.4607L125.16 54.4653ZM124.439 62.7012C124.439 62.7012 124.439 62.692 124.439 62.6874C125.801 62.7845 126.294 60.8885 126.369 59.8896C126.434 58.974 126.22 57.0919 124.941 57.0272C124.267 56.9671 123.932 56.9393 123.257 56.8838C123.099 58.7752 122.941 60.6712 122.783 62.5625C123.443 62.618 123.778 62.6457 124.439 62.7012Z" fill="#F4E5D4"/>
<path d="M137.643 55.7832C137.917 60.5232 138.164 65.2631 138.373 70.0077C139.81 65.4805 141.28 60.9625 142.782 56.4584C143.694 56.5832 144.601 56.7127 145.512 56.8468C145.331 62.4053 145.122 67.9637 144.88 73.5222C144.02 73.3927 143.164 73.2632 142.303 73.143C142.401 70.299 142.494 67.455 142.582 64.6111C141.541 67.3348 140.406 70.0215 139.327 72.7268C138.466 72.6112 137.606 72.5002 136.745 72.3892C136.41 69.4944 136.01 66.6088 135.717 63.7093C135.062 66.4793 134.41 69.2493 133.769 72.0239C132.908 71.9221 132.048 71.825 131.183 71.7279C132.397 66.299 133.638 60.8746 134.908 55.4595C135.82 55.5659 136.731 55.6723 137.643 55.7879V55.7832Z" fill="#F4E5D4"/>
<path d="M151.164 57.7162C153.847 58.1555 156.522 58.6226 159.191 59.122C159.033 59.9636 158.875 60.8053 158.712 61.6469C156.95 61.3186 155.187 61.0041 153.419 60.6989C153.094 62.5718 152.773 64.44 152.447 66.3128C153.592 66.5117 154.731 66.7105 155.875 66.9186C155.922 67.7973 155.964 68.6759 156.01 69.5545C154.68 69.314 153.345 69.0782 152.01 68.847C151.829 69.8921 151.647 70.9418 151.466 71.9869C153.173 72.2829 154.88 72.5881 156.582 72.9025C156.424 73.7441 156.266 74.5858 156.108 75.4228C153.564 74.9511 151.015 74.5025 148.461 74.0863C149.359 68.6296 150.261 63.1776 151.159 57.7208L151.164 57.7162Z" fill="#F4E5D4"/>
<path d="M161.731 62.2203C161.898 61.3787 162.066 60.5417 162.228 59.7C165.117 60.2688 168 60.8746 170.875 61.5081C170.689 62.3452 170.498 63.1775 170.312 64.0145C169.326 63.7972 168.34 63.5798 167.354 63.3718C166.368 67.9406 165.382 72.5094 164.4 77.0736C163.549 76.8933 162.698 76.7129 161.842 76.5372C162.791 71.9638 163.74 67.3857 164.689 62.8122C163.703 62.6087 162.712 62.4099 161.726 62.2203H161.731Z" fill="#F4E5D4"/>
<path d="M22.4505 78.9558L18.7437 62.4654L18.8971 62.433C19.7901 62.2342 20.6924 62.04 21.5761 61.8504L21.7296 61.818L24.697 75.5199C26.3388 75.1731 27.9992 74.8309 29.6411 74.5025L29.7992 74.4702L30.3666 77.2956L30.2131 77.328C27.6876 77.832 25.1295 78.3685 22.6087 78.928L22.4552 78.9604L22.4505 78.9558ZM19.125 62.7059L22.6924 78.5812C25.1109 78.0494 27.5667 77.5315 29.9945 77.0459L29.5527 74.8401C27.9109 75.1684 26.2504 75.5106 24.6133 75.8575L24.4598 75.8898L21.4924 62.1879C20.7064 62.359 19.9111 62.5301 19.125 62.7059Z" fill="#F4E5D4"/>
<path d="M36.6641 76.0656C33.6828 76.0656 32.2921 71.5661 31.7526 69.8088C31.0317 67.4736 30.6085 65.0412 30.2038 62.692C30.0689 61.9244 29.9341 61.1336 29.7852 60.3521L29.7573 60.1949L29.9108 60.1671C30.7992 60.0006 31.7061 59.8342 32.6038 59.6677L32.7619 59.6399L32.7898 59.7972C32.9154 60.5232 33.041 61.2631 33.1572 61.9752C33.4549 63.7556 33.7572 65.5961 34.1619 67.3857C34.1851 67.4782 34.2084 67.603 34.2409 67.7464C34.4084 68.5233 34.7153 69.9707 35.1525 71.1823C35.6549 72.5742 36.1897 73.2678 36.692 73.1754C37.1944 73.0875 37.4548 72.2551 37.4455 70.7707C37.4362 69.4805 37.2269 68.0192 37.1153 67.2331C37.092 67.0851 37.0781 66.9649 37.0641 66.8678C36.8223 65.0412 36.4734 63.2007 36.1339 61.4203C35.999 60.7174 35.8642 59.9868 35.7339 59.27L35.706 59.1128L35.8642 59.085C36.7572 58.9324 37.6688 58.7798 38.5664 58.6318L38.7245 58.6041L38.7525 58.7613C38.8873 59.5521 39.0315 60.3521 39.171 61.129C39.5989 63.4689 40.0408 65.8828 40.1664 68.3152C40.2687 70.262 40.5478 75.432 37.1944 76.0054C37.013 76.0378 36.8316 76.0517 36.6595 76.0517L36.6641 76.0656ZM30.1248 60.4492C30.2596 61.1798 30.3899 61.9197 30.5154 62.6365C30.9201 64.9764 31.3433 67.3996 32.0549 69.7164C32.6038 71.5013 34.0642 76.2367 37.1432 75.7049C39.8966 75.2332 40.0082 71.2748 39.8501 68.3429C39.7199 65.9337 39.2827 63.5244 38.8594 61.1983C38.7292 60.4723 38.5897 59.7232 38.4641 58.9833C37.6734 59.1128 36.8734 59.2469 36.0781 59.381C36.199 60.0469 36.3293 60.7174 36.4502 61.3694C36.7897 63.1544 37.1385 64.9995 37.3804 66.8354C37.3943 66.9279 37.4083 67.0527 37.4316 67.1961C37.8362 69.9984 38.1199 73.2493 36.7479 73.4944C36.6967 73.5037 36.6502 73.5083 36.599 73.5083C35.3107 73.5083 34.5014 70.4886 33.9293 67.8204C33.8968 67.677 33.8735 67.5522 33.8502 67.4597C33.4456 65.6608 33.1386 63.8157 32.841 62.0307C32.7293 61.3694 32.6177 60.685 32.5014 60.0099C31.7061 60.1532 30.9108 60.3012 30.1201 60.4492H30.1248Z" fill="#F4E5D4"/>
<path d="M50.3196 73.9245C48.2499 73.9245 46.7197 72.7684 45.7616 71.7325C44.4639 70.336 43.5151 68.3614 43.2221 66.4608C42.8407 64.0053 43.464 61.3417 44.85 59.5058C45.8639 58.1555 47.2406 57.3324 48.8266 57.1243C49.7754 56.9994 50.7568 57.115 51.6684 57.4619L51.7568 57.4942L52.1242 60.3752L51.8917 60.3058C50.8498 59.9914 50.0499 59.8943 49.208 59.9821C48.422 60.0607 47.7522 60.4538 47.222 61.1428C46.2174 62.4561 45.9337 64.5879 46.1755 66.0169C46.5476 68.2088 48.0546 71.3487 50.6964 71.0158C51.5103 70.9094 52.3242 70.5811 53.1103 70.0354L53.3242 69.8874L53.6916 72.7823L53.6172 72.8378C52.8591 73.3927 51.98 73.7488 51.0777 73.869C50.8173 73.906 50.5661 73.9199 50.3196 73.9199V73.9245ZM48.8638 57.4387C47.3616 57.6376 46.0639 58.4191 45.0965 59.7C43.7849 61.4434 43.171 64.0793 43.5291 66.4192C43.8128 68.2643 44.7337 70.1695 45.9895 71.5244C46.9011 72.5094 48.3615 73.61 50.3196 73.61C50.5522 73.61 50.7894 73.5961 51.0312 73.5638C51.8498 73.4528 52.6498 73.1383 53.3475 72.6435L53.0684 70.4424C52.3056 70.9325 51.5196 71.2285 50.7289 71.3302C50.5801 71.3487 50.4359 71.358 50.2964 71.358C47.7011 71.358 46.2267 68.2689 45.8546 66.0724C45.6081 64.6203 45.8546 62.4006 46.9616 60.9532C47.5476 60.1902 48.2871 59.7602 49.1662 59.6677C49.9847 59.5844 50.7661 59.6677 51.7382 59.9359L51.4591 57.7208C50.6219 57.4202 49.7243 57.3185 48.8638 57.4341V57.4387Z" fill="#F4E5D4"/>
<path d="M61.952 72.5834C60.2172 72.5834 58.5521 71.7603 57.2219 70.225C55.9707 68.7822 55.087 66.7845 54.8591 64.8839C54.5708 62.4469 55.2777 59.8203 56.7149 58.0307C57.78 56.7035 59.18 55.9127 60.7753 55.7462C62.3473 55.5798 63.8636 56.0561 65.1566 57.1197C66.9147 58.5717 68.1797 61.0966 68.3751 63.5567C68.5286 65.4712 68.0588 67.6076 67.124 69.2724C66.3472 70.6504 64.9054 72.3429 62.445 72.5649C62.2776 72.5788 62.1148 72.588 61.952 72.588V72.5834ZM61.3846 56.0283C61.1939 56.0283 60.9985 56.0376 60.8078 56.0607C59.3009 56.2225 57.9753 56.9717 56.9661 58.2295C55.5801 59.9544 54.8964 62.4931 55.1754 64.8515C55.394 66.692 56.2498 68.625 57.4637 70.0262C58.4451 71.1591 60.1009 72.4632 62.4218 72.2551C66.524 71.8851 68.3332 66.9833 68.0635 63.5891C67.8728 61.2122 66.6542 58.7705 64.9566 57.3694C63.8915 56.4907 62.6683 56.0329 61.3892 56.0329L61.3846 56.0283ZM61.859 70.0215C59.2079 70.0215 57.8079 66.8261 57.5102 64.5833C57.3196 63.1498 57.6126 60.9763 58.7149 59.5937C59.3288 58.8214 60.1055 58.3867 61.0311 58.2942C61.952 58.2018 62.7985 58.4792 63.552 59.1127C64.9054 60.255 65.6263 62.3266 65.7193 63.7694C65.8728 66.1186 65.0635 69.7163 62.1938 69.9984C62.0822 70.0077 61.9706 70.0169 61.859 70.0169V70.0215ZM61.059 58.6087C60.2265 58.6919 59.5195 59.0896 58.9614 59.7879C57.9195 61.0966 57.6405 63.1683 57.8219 64.5417C58.1195 66.7521 59.5148 69.9522 62.1613 69.6886C64.8031 69.4296 65.5473 66.0215 65.3984 63.7926C65.3101 62.4145 64.6263 60.4353 63.3427 59.3532C62.659 58.7752 61.8869 58.5255 61.059 58.6041V58.6087Z" fill="#F4E5D4"/>
<path d="M85.3838 71.0944C83.0071 71.0944 81.4165 69.647 80.4956 68.4123C79.3561 66.8863 78.6212 64.8284 78.5282 62.9093C78.4072 60.4261 79.3049 57.8365 80.8723 56.1532C82.0211 54.9231 83.4676 54.248 85.0629 54.2017C86.0164 54.174 86.9791 54.3913 87.8489 54.8306L87.9326 54.8723L88.0163 58.7798L87.7187 58.396C87.0815 57.5682 86.0908 57.0642 85.142 57.0781C84.328 57.0919 83.6071 57.4249 83.0071 58.0723C81.849 59.3162 81.4165 61.3787 81.5049 62.7706C81.6397 64.9302 82.756 68.1117 85.2815 68.2042L85.1141 62.4608H85.2722C86.1559 62.433 87.0536 62.4099 87.9373 62.3914H88.0954L88.2628 70.2759L88.1838 70.3221C87.3745 70.7984 86.4629 71.062 85.5559 71.0898C85.5001 71.0898 85.4396 71.0898 85.3838 71.0898V71.0944ZM85.0675 54.359V54.5162C83.5653 54.5578 82.1932 55.2006 81.1049 56.3659C79.6165 57.9613 78.7328 60.5232 78.8445 62.8908C78.9328 64.7544 79.6491 66.7475 80.7514 68.2227C81.6258 69.3973 83.1374 70.7753 85.3838 70.7753C85.4396 70.7753 85.4908 70.7753 85.5466 70.7753C86.3698 70.7522 87.1977 70.5164 87.9419 70.1002L87.7838 62.7151C87.007 62.7336 86.221 62.7521 85.4396 62.7752L85.6071 68.5279H85.4443C84.1466 68.551 83.0443 67.8435 82.2537 66.4886C81.6676 65.4758 81.2676 64.0978 81.1839 62.7937C81.0909 61.3371 81.5514 59.1729 82.7699 57.8596C83.4304 57.1474 84.2257 56.7775 85.1327 56.7636C86.0489 56.7497 86.9838 57.1613 87.6721 57.8642L87.6117 55.0665C86.8117 54.678 85.9373 54.4884 85.0675 54.5116V54.3543V54.359Z" fill="#F4E5D4"/>
<path d="M98.0858 70.9649C98.0533 70.9649 98.0207 70.9649 97.9882 70.9649C96.0673 70.9325 94.3138 69.9106 93.0487 68.0886C91.9604 66.5209 91.3 64.4446 91.2767 62.5301C91.2488 60.0746 92.2395 57.5359 93.858 55.9081C95.0534 54.7058 96.5324 54.0722 98.1277 54.0722C99.709 54.0722 101.16 54.7058 102.332 55.9035C103.928 57.5312 104.909 60.181 104.844 62.6457C104.788 64.5648 104.095 66.6412 102.988 68.1949C102.081 69.4666 100.5 70.9742 98.0858 70.9742V70.9649ZM98.1277 54.3821C96.6161 54.3821 95.2208 54.9832 94.0859 56.1254C92.5232 57.6931 91.5697 60.144 91.5976 62.5209C91.6162 64.3752 92.2581 66.3868 93.3139 67.9036C94.165 69.1337 95.6719 70.6042 97.9975 70.6458C98.0254 70.6458 98.0579 70.6458 98.0858 70.6458C102.142 70.6458 104.435 66.0076 104.528 62.6272C104.593 60.2411 103.644 57.6838 102.109 56.1116C101.002 54.9786 99.6253 54.3774 98.1323 54.3774L98.1277 54.3821ZM98.0393 68.3938C98.0393 68.3938 98.0207 68.3938 98.0114 68.3938C95.1324 68.3707 93.9976 64.8608 93.9417 62.507C93.9045 61.0596 94.4301 58.9278 95.6766 57.67C96.3696 56.9717 97.1882 56.6202 98.1137 56.6295C99.0393 56.6387 99.8486 56.9994 100.532 57.7116C101.756 58.9879 102.249 61.129 102.188 62.5764C102.09 64.9209 100.904 68.3984 98.0486 68.3984L98.0393 68.3938ZM98.0812 56.9439C97.2579 56.9439 96.5231 57.263 95.8998 57.8919C94.7231 59.085 94.2255 61.1151 94.258 62.4978C94.3138 64.7267 95.3603 68.0562 98.0161 68.0793C98.0254 68.0793 98.0347 68.0793 98.044 68.0793C100.676 68.0793 101.774 64.7868 101.867 62.5625C101.923 61.1798 101.458 59.1405 100.3 57.9289C99.6811 57.2815 98.9463 56.9532 98.1091 56.9439C98.0998 56.9439 98.0905 56.9439 98.0812 56.9439Z" fill="#F4E5D4"/>
<path d="M112.188 71.3765C112.132 71.3765 112.072 71.3765 112.011 71.3719C108.625 71.1869 108.258 66.0446 108.118 64.107C107.942 61.67 108.081 59.2053 108.211 56.8237C108.253 56.0468 108.3 55.2422 108.332 54.4514V54.2942L108.495 54.2988C109.397 54.3358 110.314 54.3728 111.221 54.4144L111.379 54.4237L111.369 54.5809C111.332 55.3162 111.286 56.0653 111.239 56.7867C111.128 58.5856 111.011 60.4492 111.002 62.2851C111.002 62.3822 111.002 62.507 110.997 62.655C110.983 63.4504 110.955 64.9255 111.109 66.2065C111.286 67.677 111.648 68.4678 112.155 68.4909C112.662 68.5187 113.104 67.7649 113.43 66.3175C113.714 65.0597 113.834 63.5845 113.904 62.7984C113.918 62.6504 113.927 62.5255 113.937 62.433C114.114 60.5972 114.188 58.729 114.258 56.9162C114.286 56.1994 114.313 55.4595 114.351 54.7289L114.36 54.5717L114.518 54.5809C115.425 54.6318 116.341 54.6873 117.244 54.7428L117.402 54.752L117.392 54.9093C117.346 55.7093 117.304 56.5231 117.272 57.3093C117.16 59.6816 117.048 62.1371 116.63 64.5371C116.299 66.4238 115.43 71.3765 112.193 71.3765H112.188ZM108.639 54.6225C108.607 55.3624 108.565 56.1162 108.528 56.8422C108.397 59.2145 108.262 61.6654 108.435 64.0839C108.569 65.9429 108.923 70.8863 112.03 71.0528C114.807 71.2054 115.806 67.3718 116.313 64.477C116.732 62.1001 116.844 59.6538 116.955 57.2908C116.988 56.5555 117.025 55.7925 117.067 55.0434C116.267 54.9925 115.462 54.9462 114.662 54.9C114.63 55.5752 114.602 56.2596 114.579 56.9255C114.509 58.7382 114.434 60.6157 114.258 62.4608C114.248 62.5533 114.239 62.6781 114.225 62.8215C113.988 65.6146 113.546 68.8054 112.193 68.8054C112.179 68.8054 112.165 68.8054 112.151 68.8054C110.76 68.736 110.639 65.4758 110.69 62.6458C110.69 62.4978 110.695 62.3729 110.695 62.2804C110.704 60.4353 110.821 58.5717 110.932 56.7682C110.974 56.0977 111.016 55.4087 111.053 54.7243C110.253 54.6873 109.444 54.6549 108.644 54.6225H108.639Z" fill="#F4E5D4"/>
<path d="M128.611 72.6204L128.453 72.6065C127.592 72.5187 126.722 72.4354 125.867 72.3568L125.704 72.343L125.722 72.1811C125.75 71.9221 125.806 71.6031 125.871 71.2331C126.104 69.9244 126.453 67.9452 125.755 67.0111C125.522 66.7013 125.197 66.5302 124.75 66.4793C124.183 66.4284 123.871 66.4053 123.346 66.3591L122.867 72.0886L122.708 72.0747C121.848 72.0054 120.978 71.936 120.118 71.8713L119.96 71.8574L121.229 55.0063L121.388 55.0202C122.853 55.1312 124.341 55.2514 125.806 55.3763C127.508 55.5196 128.783 56.5231 129.401 58.2018C130.248 60.5093 129.68 63.5521 128.113 65.2122C129.397 66.8076 129.048 69.314 128.764 71.3348C128.708 71.7325 128.657 72.1071 128.62 72.4586L128.601 72.6158L128.611 72.6204ZM126.057 72.0563C126.811 72.1256 127.573 72.1996 128.327 72.2736C128.364 71.9684 128.406 71.6401 128.457 71.2979C128.736 69.2909 129.085 66.7938 127.787 65.314L127.69 65.203L127.797 65.0966C129.336 63.5706 129.922 60.5278 129.113 58.3127C128.541 56.7543 127.36 55.8249 125.792 55.6954C124.383 55.5751 122.95 55.4595 121.536 55.3486L120.313 71.5707C121.071 71.6262 121.834 71.6863 122.588 71.751L123.067 66.0215L123.225 66.0354C123.853 66.0862 124.164 66.114 124.792 66.1695C125.322 66.2296 125.732 66.4516 126.015 66.8261C126.797 67.8666 126.448 69.8458 126.192 71.2886C126.141 71.5799 126.094 71.8389 126.067 72.0563H126.057ZM125.215 63.9452L125.057 63.9313C124.397 63.8758 124.067 63.8434 123.401 63.7926L123.243 63.7787L123.741 57.7856L123.899 57.7994C124.574 57.8549 124.908 57.8827 125.583 57.9428C125.946 57.9613 126.267 58.1185 126.518 58.4006C127.122 59.0804 127.201 60.3382 127.155 60.9764C127.08 62.003 126.574 63.8851 125.215 63.9221V63.9452ZM124.927 63.5937L125.081 63.603C126.313 63.6908 126.769 61.9058 126.839 60.9532C126.894 60.1948 126.741 59.1359 126.276 58.6133C126.08 58.3914 125.843 58.2757 125.555 58.2619C124.932 58.2064 124.597 58.1786 124.025 58.1324L123.578 63.4966C124.09 63.5382 124.406 63.566 124.918 63.6122V63.603L124.927 63.5937Z" fill="#F4E5D4"/>
<path d="M145.666 74.7753L145.489 74.7476C144.638 74.6181 143.773 74.4886 142.913 74.3684L142.773 74.3499V74.2066C142.866 71.6817 142.95 69.129 143.029 66.6042C142.485 68.0007 141.913 69.4019 141.359 70.7614C140.945 71.7742 140.517 72.8239 140.108 73.8551L140.062 73.9707L139.936 73.9522C139.08 73.8366 138.215 73.7256 137.359 73.6146L137.234 73.6008L137.22 73.4759C137.094 72.3753 136.955 71.2562 136.82 70.1741C136.638 68.7175 136.452 67.2146 136.29 65.7255C135.708 68.1811 135.127 70.6689 134.555 73.1337L134.522 73.2724L134.383 73.2539C133.527 73.1522 132.657 73.0551 131.797 72.958L131.62 72.9395L131.657 72.7684C132.866 67.3672 134.117 61.892 135.383 56.5L135.415 56.3613L135.555 56.3798C136.462 56.4861 137.383 56.5971 138.289 56.7081L138.42 56.722L138.429 56.8514C138.685 61.2769 138.917 65.7579 139.122 70.188C140.471 65.9614 141.861 61.6885 143.261 57.485L143.303 57.3601L143.434 57.3786C144.341 57.5035 145.257 57.6376 146.164 57.7671L146.303 57.7856V57.9289C146.117 63.4596 145.908 69.0689 145.666 74.6042L145.657 74.78L145.666 74.7753ZM143.103 74.0724C143.857 74.1834 144.615 74.2944 145.364 74.4054C145.596 68.9764 145.806 63.4781 145.982 58.0491C145.168 57.9289 144.34 57.8133 143.527 57.6977C142.048 62.1417 140.578 66.6596 139.159 71.1221L138.889 71.973L138.848 71.0805C138.638 66.4099 138.396 61.67 138.127 56.9902C137.308 56.8884 136.485 56.7913 135.666 56.6942C134.424 61.9845 133.197 67.3533 132.011 72.6528C132.764 72.736 133.527 72.8239 134.28 72.9117C134.913 70.188 135.559 67.4412 136.201 64.7359L136.42 63.8203L136.517 64.7544C136.699 66.5487 136.927 68.366 137.145 70.1233C137.276 71.1684 137.41 72.2412 137.531 73.3048C138.308 73.4019 139.089 73.5083 139.866 73.61C140.262 72.6112 140.675 71.6031 141.071 70.6273C141.741 68.9857 142.429 67.2886 143.071 65.6099L143.406 64.7313L143.378 65.67C143.294 68.4493 143.201 71.2747 143.103 74.0632V74.0724Z" fill="#F4E5D4"/>
<path d="M156.871 76.676L156.712 76.6482C154.182 76.1765 151.61 75.728 149.071 75.3118L148.913 75.284L151.661 58.6087L151.82 58.6365C154.489 59.0758 157.191 59.5474 159.852 60.0422L160.01 60.07L159.475 62.9047L159.317 62.877C157.615 62.5625 155.889 62.2527 154.182 61.9567L153.266 67.2608C154.354 67.4504 155.457 67.6446 156.54 67.8389L156.666 67.862V67.9868C156.717 68.8655 156.764 69.7441 156.805 70.6227L156.815 70.8216L156.619 70.7846C155.35 70.5533 154.057 70.3221 152.778 70.1048L152.289 72.9303C153.94 73.217 155.605 73.5129 157.252 73.8181L157.41 73.8459L156.875 76.676H156.871ZM149.28 75.0251C151.717 75.4274 154.187 75.8575 156.619 76.3106L157.038 74.1002C155.392 73.795 153.726 73.499 152.08 73.2123L151.922 73.1846L152.517 69.7348L152.675 69.7626C153.94 69.9799 155.219 70.2065 156.48 70.4331C156.443 69.6608 156.401 68.8932 156.364 68.1209C155.271 67.9221 154.159 67.7279 153.061 67.5383L152.903 67.5105L153.926 61.5821L154.085 61.6099C155.791 61.9058 157.517 62.2111 159.224 62.5301L159.643 60.3197C157.089 59.848 154.494 59.3948 151.931 58.9694L149.285 75.0204L149.28 75.0251Z" fill="#F4E5D4"/>
<path d="M165.159 78.3361L165.005 78.3037C164.163 78.1234 163.303 77.943 162.452 77.7673L162.298 77.7349L165.145 64.0099C164.261 63.8296 163.34 63.6446 162.34 63.4457L162.182 63.4134L162.745 60.5833L162.903 60.6157C165.782 61.1844 168.694 61.7902 171.554 62.4238L171.707 62.4561L171.075 65.2724L170.921 65.24C170.033 65.0411 169.112 64.8423 168.122 64.6296L165.168 78.3315L165.159 78.3361ZM162.67 77.4945C163.419 77.6471 164.173 77.8043 164.917 77.9661L167.87 64.2643L168.024 64.2966C169.019 64.5093 169.94 64.7082 170.828 64.907L171.321 62.7105C168.563 62.1001 165.759 61.5174 162.987 60.9671L162.55 63.1775C163.55 63.3764 164.47 63.5567 165.359 63.7417L165.512 63.7741L162.666 77.4991L162.67 77.4945Z" fill="#F4E5D4"/>
<path d="M69.3888 83.6217C69.6818 83.6217 69.9609 83.7003 70.2121 83.839V84.6668C69.9376 84.5281 69.7051 84.4494 69.3888 84.4494C68.7051 84.4494 68.1516 85.2772 68.1516 86.2992C68.1516 87.3211 68.7098 88.1443 69.3935 88.1443C69.7097 88.1443 69.9423 88.0657 70.2167 87.9223V88.7501C69.9656 88.8934 69.6865 88.972 69.3935 88.972C68.2493 88.972 67.3191 87.779 67.3145 86.2992C67.3145 84.8194 68.2354 83.6217 69.3795 83.6171L69.3888 83.6217Z" fill="#F4E5D4"/>
<path d="M72.2911 83.6171C73.4353 83.6171 74.3655 84.8101 74.3702 86.2899C74.3702 87.7697 73.4493 88.9674 72.3051 88.972C71.1609 88.9767 70.2307 87.779 70.2261 86.2992C70.2261 84.8194 71.147 83.6217 72.2911 83.6171ZM72.2911 84.4448C71.6074 84.4448 71.054 85.2726 71.054 86.2945C71.054 87.3165 71.6121 88.1397 72.2958 88.1397C72.9795 88.1397 73.533 87.3119 73.533 86.2899C73.533 85.268 72.9748 84.4448 72.2911 84.4448Z" fill="#F4E5D4"/>
<path d="M75.9932 83.6078L76.7932 88.1304L77.5746 83.6032H78.4164L79.0118 88.9535H78.1792L77.8769 86.2159C77.6723 87.1732 77.4304 88.0795 77.2211 88.9582H76.3886C76.17 88.061 75.9281 87.1824 75.7188 86.2206L75.4258 88.9582H74.5933L75.1607 83.6078H76.0025H75.9932Z" fill="#F4E5D4"/>
<path d="M79.3838 83.5986H81.8675V84.4217H80.221V86.2622H81.3047L81.4954 87.0899H80.221V88.1212H81.8675V88.9443H79.3838L79.3699 83.5986H79.3838Z" fill="#F4E5D4"/>
<path d="M82.849 83.5893C83.9932 83.5893 84.9234 84.7824 84.928 86.2622C84.928 87.7419 84.0071 88.9396 82.863 88.9443H82.263L82.249 83.5939H82.849V83.5893ZM84.0955 86.2622C84.0955 85.3604 83.6583 84.6113 83.0816 84.4494L83.0909 88.0795C83.6629 87.9177 84.0955 87.1639 84.0955 86.2622Z" fill="#F4E5D4"/>
<path d="M87.1976 83.5801C88.3418 83.5801 89.272 84.7732 89.2767 86.2529C89.2767 87.7327 88.3557 88.9304 87.2116 88.9351C86.0674 88.9397 85.1372 87.742 85.1326 86.2622C85.1326 84.7824 86.0535 83.5847 87.1976 83.5801ZM87.1976 84.4078C86.5139 84.4078 85.9605 85.2356 85.9605 86.2576C85.9605 87.2795 86.5186 88.1027 87.2023 88.1027C87.886 88.1027 88.4395 87.2749 88.4395 86.2529C88.4395 85.231 87.8813 84.4078 87.1976 84.4078Z" fill="#F4E5D4"/>
<path d="M91.0161 83.5708C92.3974 83.5708 92.7091 85.6702 91.9463 86.6136C92.4253 87.0945 92.3556 87.9824 92.3556 88.9211H91.523C91.523 88.4633 91.7695 87.0668 90.9975 87.0668H90.4998V88.9258H89.6673L89.6533 83.5754H91.0068L91.0161 83.5708ZM91.0207 86.239C91.3696 86.2344 91.5463 85.7489 91.537 85.2772C91.5277 84.8332 91.3463 84.3986 91.0161 84.3986H90.4952V86.239H91.0161H91.0207Z" fill="#F4E5D4"/>
<path d="M94.1697 83.5662H95.0115L95.6255 86.2298L96.2301 83.5616H97.0719L96.0487 87.0575V88.9119H95.2208V87.0575L94.1743 83.5662H94.1697Z" fill="#F4E5D4"/>
<path d="M100.207 83.5523L101.007 88.0749L101.788 83.5477H102.63L103.225 88.8981H102.393L102.09 86.1604C101.886 87.1177 101.644 88.024 101.434 88.9027H100.602C100.383 88.0056 100.141 87.1269 99.9322 86.1651L99.6392 88.9027H98.8066L99.3741 83.5523H100.216H100.207Z" fill="#F4E5D4"/>
<path d="M103.602 83.5431H106.086V84.3662H104.439V86.2067H105.523L105.713 87.0344H104.439V88.0657H106.086V88.8888H103.602L103.588 83.5431H103.602Z" fill="#F4E5D4"/>
<path d="M107.816 83.5338C109.197 83.5338 109.509 85.6333 108.746 86.5766C109.225 87.0576 109.155 87.9454 109.155 88.8842H108.323C108.323 88.4264 108.569 87.0298 107.797 87.0298H107.3V88.8888H106.467L106.453 83.5384H107.807L107.816 83.5338ZM107.821 86.2021C108.169 86.1974 108.346 85.7119 108.337 85.2402C108.327 84.7963 108.146 84.3616 107.816 84.3616H107.295V86.2021H107.816H107.821Z" fill="#F4E5D4"/>
<path d="M111.527 83.5246C111.82 83.5246 112.099 83.6032 112.35 83.7419V84.5697C112.076 84.431 111.844 84.3523 111.527 84.3523C110.844 84.3523 110.29 85.1801 110.29 86.2021C110.29 87.224 110.848 88.0472 111.532 88.0472C111.848 88.0472 112.081 87.9686 112.355 87.8252V88.653C112.104 88.7963 111.825 88.8749 111.532 88.8749C110.388 88.8749 109.458 87.6819 109.453 86.2021C109.453 84.7223 110.374 83.5246 111.518 83.52L111.527 83.5246Z" fill="#F4E5D4"/>
<path d="M114.518 88.8703L114.406 88.0426H113.411L113.304 88.8749H112.462L113.481 83.52H114.313L115.355 88.8657H114.513L114.518 88.8703ZM114.29 87.2148L113.899 84.3477L113.523 87.2148H114.295H114.29Z" fill="#F4E5D4"/>
<path d="M116.248 83.5153C117.392 83.5153 118.323 84.7084 118.327 86.1882C118.327 87.668 117.406 88.8657 116.262 88.8703H115.662L115.648 83.5199H116.248V83.5153ZM117.495 86.1882C117.495 85.2864 117.057 84.5373 116.481 84.3754L116.49 88.0055C117.062 87.8437 117.495 87.0899 117.495 86.1882Z" fill="#F4E5D4"/>
<path d="M120.597 83.5061C121.741 83.5061 122.671 84.6991 122.676 86.1789C122.676 87.6587 121.755 88.8564 120.611 88.861C119.467 88.8657 118.536 87.668 118.532 86.1882C118.532 84.7084 119.453 83.5107 120.597 83.5061ZM120.597 84.3338C119.913 84.3338 119.36 85.1616 119.36 86.1836C119.36 87.2055 119.918 88.0287 120.601 88.0287C121.285 88.0287 121.839 87.2009 121.839 86.1789C121.839 85.157 121.281 84.3338 120.597 84.3338Z" fill="#F4E5D4"/>
<path d="M102.235 26.9135C102.37 29.8454 101.281 33.0731 99.0812 35.057C97.9278 36.042 96.6115 36.8281 95.6348 38.0073C95.0069 38.6871 94.2814 39.3206 93.9558 40.2039C93.8163 40.5969 93.7418 41.0547 93.6535 41.3137C93.4209 42.0443 93.2907 40.9206 93.3139 40.5322C93.3791 37.4431 94.4814 34.6593 96.486 32.3286C97.6766 30.9367 98.951 29.5448 99.7463 27.8615C100.295 26.6453 100.881 25.3274 100.844 23.991C100.844 23.7875 100.877 23.3251 100.997 23.4129C101.197 23.5378 101.342 23.8615 101.467 24.0927C101.877 24.9621 102.183 25.9054 102.23 26.858V26.9182L102.235 26.9135Z" fill="#F4E5D4"/>
<path d="M91.0629 35.7553C90.4861 37.679 91.0164 40.2224 92.128 41.901C92.3419 42.2108 92.621 42.5946 92.7233 42.9276C92.7931 43.1264 92.7838 43.2467 92.6861 43.2698C92.314 43.3345 91.3792 42.4004 90.942 42.0628C89.0583 40.4998 87.3141 38.0767 88.142 35.5287C88.4536 34.2246 89.035 33.0269 89.6908 31.8755C90.8582 29.776 92.1233 27.7829 93.2442 25.6742C93.9326 24.1436 94.0954 22.1829 93.1791 20.7216C92.6814 20.0187 91.8257 19.6256 90.9885 19.3435C90.1327 19.0337 89.2862 18.9736 88.4536 19.2372C87.4862 19.5424 87.7141 18.9505 87.9839 18.4464C88.5513 17.4475 89.5327 16.5874 90.6489 16.1944C93.3651 15.436 96.1325 17.4106 97.3558 19.7597C98.6767 21.8638 98.0348 24.458 97.0069 26.5251C95.5651 29.8592 92.5094 32.361 91.0815 35.6998L91.0629 35.7553Z" fill="#F4E5D4"/>
</g>
<defs>
<clipPath id="clip0_180_123">
<rect width="190" height="105" fill="white"/>
</clipPath>
</defs>
</svg>
